<?xml version="1.0" encoding="UTF-8"?>
<!DOCTYPE svg PUBLIC "-//W3C//DTD SVG 1.1//EN" "http://www.w3.org/Graphics/SVG/1.1/DTD/svg11.dtd">
<svg version="1.1" xmlns="http://www.w3.org/2000/svg" xmlns:xlink="http://www.w3.org/1999/xlink" x="0" y="0" width="480" height="54" viewBox="0, 0, 480, 54">
  <g id="Layer_1">
    <path d="M138.781,30.9 C140.213,30.074 141.751,29.377 143.035,28.361 C148.391,24.122 150.085,16.188 146.982,10.072 C144.039,4.269 139.082,1.345 132.761,1.17 C123.666,0.919 114.561,1.087 105.459,1.08 C105.247,1.08 105.035,1.13 104.834,1.155 L104.834,52.133 L112.064,52.133 L112.064,32.378 L130.069,32.378 C134.557,38.987 139.033,45.578 143.468,52.108 L151.621,52.108 C146.883,45.094 142.276,38.273 137.635,31.402 C138.068,31.216 138.446,31.094 138.781,30.9 M131.103,25.451 C125.016,25.507 118.929,25.477 112.842,25.475 C112.62,25.475 112.399,25.448 112.089,25.428 L112.089,8.209 C112.199,8.167 112.274,8.114 112.35,8.114 C119.084,8.128 125.822,8.034 132.552,8.211 C135.873,8.298 138.666,9.786 140.279,12.877 C142.782,17.674 140.165,23.557 134.929,24.909 C133.688,25.23 132.382,25.439 131.103,25.451" fill="#FF00B8"/>
    <path d="M236.632,31.159 L251.975,31.159 L251.975,39.809 C250.245,41.547 248.313,42.893 246.116,43.84 C240.667,46.19 235.037,46.535 229.329,45.086 C224.299,43.809 220.349,40.976 217.823,36.357 C215.515,32.136 214.949,27.607 215.779,22.923 C216.776,17.298 219.611,12.834 224.666,10.014 C229.857,7.118 235.415,6.67 241.119,8.086 C245.727,9.23 249.22,11.899 251.445,16.145 C251.559,16.362 251.702,16.565 251.859,16.819 C253.923,15.624 255.935,14.459 257.982,13.274 C257.852,13.008 257.774,12.832 257.683,12.663 C255.298,8.243 251.793,4.977 247.237,2.931 C239.755,-0.428 232.088,-0.547 224.452,2.283 C217.338,4.919 212.504,9.986 209.862,17.08 C208.148,21.683 207.733,26.455 208.514,31.308 C209.386,36.722 211.661,41.463 215.594,45.316 C220.396,50.02 226.33,52.227 232.922,52.786 C238.125,53.227 243.214,52.633 248.097,50.684 C252.159,49.063 255.661,46.613 258.645,43.557 L258.645,24.513 L236.632,24.513 L236.632,31.159 z" fill="#FF00B8"/>
    <path d="M193.968,1.14 L193.968,2.2 C193.968,11.695 193.976,21.191 193.958,30.687 C193.956,31.979 193.921,33.285 193.738,34.561 C193.056,39.328 190.684,42.923 186.073,44.647 C181.235,46.455 176.294,46.43 171.432,44.676 C167.955,43.422 165.568,40.988 164.302,37.482 C163.534,35.353 163.352,33.142 163.349,30.91 C163.339,21.329 163.345,11.749 163.345,2.169 L163.345,1.128 L156.063,1.128 L156.063,1.972 C156.063,11.721 156.053,21.47 156.07,31.219 C156.074,33.817 156.32,36.394 157.068,38.9 C158.627,44.121 161.781,48.075 166.729,50.359 C173.955,53.696 181.394,53.779 188.847,51.128 C192.52,49.822 195.517,47.536 197.734,44.279 C200.078,40.835 201.145,36.973 201.181,32.878 C201.273,22.482 201.236,12.084 201.245,1.687 C201.246,1.503 201.189,1.318 201.16,1.14 L193.968,1.14 z" fill="#FF00B8"/>
    <path d="M306.995,27.364 C306.168,26.94 305.284,26.63 304.341,26.231 C304.619,26.037 304.796,25.905 304.98,25.784 C306.593,24.733 307.9,23.387 308.782,21.674 C313.406,12.708 307.085,1.877 296.969,1.679 C287.702,1.498 278.43,1.614 269.16,1.602 C269.028,1.602 268.896,1.635 268.73,1.657 L268.73,52.554 L269.592,52.554 C279.426,52.554 289.259,52.557 299.093,52.547 C299.906,52.546 300.725,52.488 301.533,52.394 C308.795,51.546 313.69,46.341 313.889,39.099 C314.034,33.802 311.772,29.81 306.995,27.364 M276.007,8.631 C276.293,8.612 276.561,8.58 276.83,8.58 C282.945,8.577 289.06,8.576 295.175,8.579 C297.684,8.581 299.951,9.235 301.491,11.357 C303.254,13.786 303.41,16.504 302.381,19.236 C301.386,21.879 299.317,23.248 296.528,23.548 C296.192,23.585 295.855,23.64 295.519,23.64 C289.178,23.648 282.838,23.648 276.497,23.647 C276.362,23.647 276.226,23.619 276.007,23.595 L276.007,8.631 z M306.383,39.962 C305.631,43.473 303.043,45.511 299.132,45.55 C291.58,45.626 284.026,45.574 276.473,45.572 C276.338,45.572 276.204,45.536 276.027,45.511 L276.027,30.435 C276.176,30.4 276.231,30.376 276.286,30.376 C284.037,30.377 291.788,30.302 299.537,30.411 C304.841,30.485 307.429,35.077 306.383,39.962" fill="#FF00B8"/>
    <path d="M417.328,40.802 C406.531,27.608 395.903,14.621 385.289,1.651 L378.718,1.651 L378.718,52.498 L386.003,52.498 L386.003,13.695 C386.062,13.675 386.12,13.656 386.179,13.636 C396.819,26.613 407.459,39.59 418.026,52.479 L424.595,52.479 L424.595,1.665 L417.328,1.665 L417.328,40.802 z" fill="#FF00B8"/>
    <path d="M458.046,22.994 C465.148,15.919 472.21,8.931 479.239,1.911 C479.179,1.829 479.119,1.747 479.06,1.665 L470.156,1.665 C460.588,11.161 450.974,20.704 441.359,30.247 L441.148,30.117 L441.148,1.673 L433.961,1.673 L433.961,52.481 L441.196,52.481 L441.196,40.195 C445.323,35.946 449.16,31.994 453.045,27.993 C459.281,36.205 465.479,44.368 471.674,52.525 L479.81,52.525 C479.873,52.452 479.936,52.379 480,52.306 C472.688,42.544 465.377,32.783 458.046,22.994" fill="#FF00B8"/>
    <path d="M341.587,1.628 C341.463,1.887 341.338,2.136 341.221,2.389 C338.184,8.96 335.146,15.531 332.11,22.103 C327.595,31.87 323.08,41.636 318.574,51.408 C318.422,51.736 318.368,52.109 318.257,52.498 L325.907,52.498 C327.592,48.756 329.255,45.062 330.914,41.377 L358.969,41.377 C360.653,45.121 362.324,48.837 363.98,52.518 L371.816,52.518 C363.955,35.435 356.111,18.527 348.316,1.628 L341.587,1.628 z M334.163,34.291 C337.752,26.309 341.302,18.412 344.939,10.321 C348.591,18.39 352.169,26.295 355.788,34.291 L334.163,34.291 z" fill="#FF00B8"/>
    <path d="M69.7,-0.621 L51.499,-0.621 C51.499,-0.621 53.165,1.789 54.788,6.629 L69.7,6.629 C80.461,6.629 89.216,15.384 89.216,26.145 C89.216,31.358 87.186,36.259 83.5,39.945 C79.814,43.631 74.913,45.661 69.7,45.661 L55.132,45.661 C53.41,50.716 51.499,52.911 51.499,52.911 L69.7,52.911 C84.482,52.911 96.466,40.927 96.466,26.145 C96.466,11.362 84.482,-0.621 69.7,-0.621" fill="#FF00B8"/>
    <path d="M47.498,-0.62 L26.432,-0.62 C11.65,-0.62 -0.334,11.363 -0.334,26.146 C-0.334,27.853 -0.167,29.521 0.139,31.14 C0.202,31.475 0.272,31.807 0.348,32.138 C0.434,32.515 0.528,32.89 0.63,33.262 C0.879,34.166 1.174,35.05 1.513,35.912 C1.757,36.535 2.017,37.151 2.306,37.75 C5.007,43.357 9.606,47.878 15.269,50.48 C18.667,52.041 22.448,52.911 26.432,52.911 L47.498,52.911 C47.498,52.911 53.832,45.661 53.832,27.065 C53.832,8.469 47.498,-0.62 47.498,-0.62 M8.486,31.505 C8.414,31.235 8.33,30.973 8.268,30.697 C7.116,25.588 7.646,20.599 10.351,16.037 C13.971,9.932 19.645,6.825 26.525,6.697 C26.525,6.697 10.65,15.555 8.486,31.505" fill="#FF00B8"/>
  </g>
</svg>
